<?xml version="1.0" standalone="no"?>
<!DOCTYPE svg PUBLIC "-//W3C//DTD SVG 20010904//EN"
 "http://www.w3.org/TR/2001/REC-SVG-20010904/DTD/svg10.dtd">
<svg version="1.0" id="pinned-tab" data-name="pinned-tab" xmlns="http://www.w3.org/2000/svg"
 width="575.91" height="575.91" viewBox="0 0 575.91 575.91"
 preserveAspectRatio="xMidYMid meet">
<metadata>
Created by joaopcanario.com
</metadata>
<defs><style>.cls-1{fill:none;}</style></defs><title>safari-pinned-tab</title>
<rect class="cls-1" width="575.91" height="575.91"/>
<path d="M656.69,542c0,72.67-60.5,116.27-112,137.62-55.57-25-112-70.1-112-137.62,0-55.06,75.54-91.33,112-27C579.83,450.69,656.69,487,656.69,542Z" transform="translate(-251.53 -252.29)"/>
<path d="M814.61,363.05c-10.83,0-25.93,8.26-36,32.69C743.4,420.92,654.39,443.47,654.39,492c0,26.69,33.67,43.22,44.12,43.22a2.11,2.11,0,0,0,1.93-2.25c0-1.5-28.25-10.9-28.25-37.21,0-36.83,59.6-64.26,102.95-89.07C743.4,489.7,657.87,709.93,570,709.93c-29.46,0-48.78-19.14-53.45-46.45,20.39-22.33,34-47.29,34-65.91,0-11.65-5.28-19.71-13.28-23,19.09-32.36,46.65-54.41,65.63-54.41,18.58,0,24.38,17.29,24.38,39.84a62.75,62.75,0,0,1-1.16,12c-36.76,17.29-77.4,46.23-77.4,77,0,8.27,5.42,14.66,14.32,14.66,29.41,0,70.05-48.49,77.79-89.83,13.55-4.51,27.09-7.14,40.64-7.14q4.63,0,4.64-2.25c0-2.63-4.64-7.52-8.51-7.52-8.13,0-20.9,3.38-35.61,8.65a27.46,27.46,0,0,0,.39-5.64c0-31.2-11.61-47-32.12-47-27.6,0-60.1,24.42-80.82,59.91-.34,0-.68,0-1,0-33.46,0-67.86,47.13-67.86,57.65,0,2.75.94,3.66,2.36,3.66,6.6,0,13.19-5.49,13.19-10.06,0-13.27,21.21-40.27,44.29-40.27a28.3,28.3,0,0,1,3.13.19c-9.29,19.23-15,41-15,63.52a106.44,106.44,0,0,0,.65,11.88c-21.92,25-53.53,47-86.26,47-25.92,0-57-11.9-57-59.49,0-27.45,15.08-61.77,37.23-95.63a131.41,131.41,0,0,0,26.38,2.29C536.9,553.64,608.52,496,608.52,437c0-16.93-15.55-27.45-32-27.45-56.08,0-142.78,58.11-194.61,128.57a170,170,0,0,1-30.63-14.64C358.31,506.05,363,486.38,363,466.7,363,415,340.41,372,307.42,372,282,372,257,402.19,257,428.73c0,38.89,37.7,77.78,84.35,101.58-16,36.6-40.52,58.56-40.52,60.85,0,2.75,2.82,6.41,4.24,6.41,2.35,0,26.38-27,42.4-64.06A259.38,259.38,0,0,0,376.69,545c-23.56,34.31-39.11,71.38-39.11,105.69,0,51.25,44.29,66.81,79.16,66.81,32.32,0,67.78-21.4,94.07-47.93,6.61,29.15,27.05,47.93,58.43,47.93,111.08,0,193.9-219.11,222.93-311.18,3.09-9.4,10.06-12.78,15.86-17.67,7.75-6.39,13.94-12.78,13.94-18.41C822,366.05,819.26,363.05,814.61,363.05ZM565.37,654.69c-5.42,0-9.29-2.64-9.29-12.41,0-17.28,31-45.85,68.89-62.38C616.46,617.85,586.27,654.69,565.37,654.69Zm7.34-239.23c9.89,0,16.49,4.57,16.49,13.27,0,62.22-75.39,118.5-160.21,118.5a118.24,118.24,0,0,1-21.67-1.83C454,478.14,528.42,415.46,572.71,415.46ZM345.12,519.78c-38.17-25.16-67.85-63.6-67.85-103.41,0-22.42,11.78-34.77,25.44-34.77,26.86,0,52.3,41.64,52.3,84.19C355,485.92,350.77,503.77,345.12,519.78Zm170.32,130.4c0-22.69,6.14-44.63,15.49-63.82,5.1,3,7.85,8.41,7.85,15.78,0,12.19-8.87,31.18-23.31,49.63C515.46,651.24,515.44,650.71,515.44,650.18Z" transform="translate(-251.53 -252.29)"/>
</svg>